<svg width="14" height="14" viewBox="0 0 14 14" fill="none" xmlns="http://www.w3.org/2000/svg">
<path d="M12.2488 0.333344H1.10304C0.592323 0.333344 0.177368 0.754103 0.177368 1.27062V12.3961C0.177368 12.9126 0.592323 13.3333 1.10304 13.3333H12.2488C12.7595 13.3333 13.1774 12.9126 13.1774 12.3961V1.27062C13.1774 0.754103 12.7595 0.333344 12.2488 0.333344ZM4.10639 11.4762H2.1796V5.27218H4.10929V11.4762H4.10639ZM3.14299 4.42486C2.52491 4.42486 2.02581 3.92285 2.02581 3.30767C2.02581 2.6925 2.52491 2.19049 3.14299 2.19049C3.75817 2.19049 4.26018 2.6925 4.26018 3.30767C4.26018 3.92575 3.76107 4.42486 3.14299 4.42486V4.42486ZM11.3289 11.4762H9.40214V8.45834C9.40214 7.7387 9.38764 6.81303 8.40103 6.81303C7.39701 6.81303 7.24322 7.59651 7.24322 8.40611V11.4762H5.31643V5.27218H7.16487V6.1195H7.19098C7.44924 5.632 8.07893 5.11839 9.01621 5.11839C10.9662 5.11839 11.3289 6.40388 11.3289 8.07531V11.4762V11.4762Z" fill="white"/>
</svg>
